<?xml version="1.0" encoding="UTF-8" standalone="no"?>
<svg width="284px" height="284px" viewBox="0 0 284 284" version="1.1" xmlns="http://www.w3.org/2000/svg" xmlns:xlink="http://www.w3.org/1999/xlink" xmlns:sketch="http://www.bohemiancoding.com/sketch/ns">
    <!-- Generator: Sketch 3.4.3 (16044) - http://www.bohemiancoding.com/sketch -->
    <title>Untitled</title>
    <desc>Created with Sketch.</desc>
    <defs></defs>
    <g id="Page-1" stroke="none" stroke-width="1" fill="none" fill-rule="evenodd" sketch:type="MSPage">
        <g id="_the_maze_3" sketch:type="MSLayerGroup">
            <path d="M0.129,0.02 L283.956,0.02 L283.956,283.484 L0.129,283.484 C0.129,188.996 0.129,94.508 0.129,0.02 L0.129,0.02 Z M6.619,142.887 C6.55,142.89 6.48,142.894 6.411,142.897 C6.698,147.162 6.939,151.431 7.282,155.691 C7.976,164.318 9.741,172.746 12.186,181.034 C12.937,183.582 13.022,183.628 15.624,183.056 C32.983,179.24 50.333,175.386 67.692,171.568 C69.069,171.265 69.397,170.598 69.096,169.242 C67.516,162.125 66.015,154.992 64.477,147.866 C63.218,142.035 61.927,136.212 60.692,130.377 C60.395,128.974 59.754,128.518 58.282,128.787 C55.143,129.359 51.974,129.77 48.812,130.211 C35.451,132.078 22.088,133.937 8.723,135.783 C7.287,135.981 6.58,136.711 6.61,138.184 C6.644,139.751 6.619,141.319 6.619,142.887 L6.619,142.887 Z M185.966,222.662 C185.7,222.183 185.483,221.62 185.122,221.17 C182.181,217.501 179.181,213.878 176.272,210.184 C175.298,208.948 174.334,208.644 172.853,209.276 C167.919,211.38 162.941,213.378 157.984,215.427 C146.401,220.217 134.808,224.979 123.246,229.821 C117.285,232.318 117.464,230.765 118.727,238.306 C118.88,239.218 119.66,240.306 120.463,240.78 C123.678,242.677 127.015,244.369 130.311,246.129 C137.116,249.761 143.921,253.394 150.73,257.018 C157.007,260.36 163.3,263.674 169.563,267.042 C170.94,267.782 171.744,267.662 172.219,266.027 C172.91,263.657 173.76,261.333 174.517,258.982 C177.803,248.774 181.091,238.565 184.353,228.349 C184.94,226.515 185.408,224.644 185.966,222.662 L185.966,222.662 Z M168.575,200.958 C168.006,200.13 167.668,199.57 167.263,199.063 C165.72,197.131 164.152,195.219 162.599,193.294 C155.288,184.238 147.995,175.168 140.631,166.155 C140.212,165.642 139.148,165.249 138.507,165.385 C129.665,167.263 120.84,169.229 112.019,171.21 C109.78,171.713 109.554,172.036 109.846,174.334 C110.273,177.68 110.816,181.012 111.277,184.354 C112.939,196.41 114.584,208.469 116.243,220.525 C116.513,222.483 116.627,222.53 118.543,221.742 C133.932,215.411 149.322,209.084 164.707,202.742 C165.917,202.245 167.087,201.648 168.575,200.958 L168.575,200.958 Z M116.03,120.741 C116.76,121.737 117.161,122.328 117.607,122.885 C122.513,129 127.424,135.111 132.335,141.222 C135.395,145.03 138.484,148.813 141.5,152.655 C142.753,154.251 144.11,154.777 146.191,154.294 C155.175,152.213 164.199,150.307 173.204,148.315 C175.589,147.787 175.712,147.514 174.836,145.284 C171.242,136.138 167.608,127.008 164.066,117.843 C162.52,113.842 162.614,113.883 158.397,114.493 C145.813,116.315 133.218,118.068 120.631,119.867 C119.228,120.066 117.842,120.393 116.03,120.741 L116.03,120.741 Z M228.645,186.416 C227.926,186.632 227.569,186.708 227.237,186.844 C220.377,189.657 213.526,192.496 206.655,195.282 C205.088,195.917 204.996,196.817 205.579,198.266 C208.328,205.088 210.995,211.942 213.682,218.789 C217.293,227.991 220.884,237.2 224.509,246.395 C225.295,248.391 225.678,248.481 227.312,247.134 C234.923,240.855 241.794,233.85 247.929,226.117 C248.827,224.983 248.979,224.034 248.248,222.693 C245.278,217.238 242.424,211.721 239.541,206.219 C236.378,200.182 233.244,194.13 230.056,188.107 C229.699,187.435 229.065,186.91 228.645,186.416 L228.645,186.416 Z M276.964,142.745 C276.871,142.741 276.778,142.738 276.686,142.734 C276.686,140.926 276.785,139.111 276.661,137.311 C276.513,135.152 276.13,134.94 274.058,135.401 C268.824,136.565 263.589,137.731 258.354,138.892 C246.356,141.553 234.353,144.197 222.359,146.88 C219.632,147.49 219.338,148.097 220.637,150.574 C224.526,157.994 228.489,165.375 232.384,172.792 C233.027,174.015 233.756,174.195 235.01,173.677 C248.153,168.249 261.322,162.886 274.448,157.42 C275.16,157.123 275.955,156.104 276.031,155.351 C276.458,151.16 276.675,146.949 276.964,142.745 L276.964,142.745 Z M275.492,124.325 C274.419,116.045 272.455,108.153 269.998,100.373 C269.613,99.156 268.817,98.89 267.618,99.061 C257.119,100.567 246.618,102.067 236.106,103.483 C234.435,103.708 233.518,104.425 233.022,106 C230.013,115.545 226.95,125.072 223.937,134.616 C223.194,136.968 223.493,137.202 225.994,136.641 C233.936,134.861 241.883,133.102 249.829,131.338 C257.834,129.562 265.839,127.786 273.846,126.021 C274.876,125.794 275.759,125.495 275.492,124.325 L275.492,124.325 Z M18.969,197.537 C18.833,197.684 18.696,197.832 18.56,197.98 C18.919,198.853 19.179,199.783 19.651,200.589 C23.731,207.545 27.552,214.676 32.027,221.371 C38.288,230.738 46.148,238.749 54.73,246.046 C55.889,247.031 56.967,247.239 58.355,246.609 C60.218,245.763 62.15,245.069 64.041,244.282 C70.048,241.782 76.06,239.291 82.038,236.722 C82.568,236.493 83.252,235.683 83.205,235.208 C82.963,232.763 82.289,230.692 79.661,229.437 C74.283,226.868 69.071,223.948 63.805,221.146 C49.495,213.534 35.195,205.906 20.884,198.298 C20.28,197.978 19.608,197.788 18.969,197.537 L18.969,197.537 Z M223.301,105.623 C222.541,105.623 222.01,105.561 221.498,105.632 C210.752,107.129 200.008,108.633 189.266,110.151 C186.331,110.566 186.258,110.689 186.589,113.715 C186.609,113.895 186.644,114.073 186.664,114.253 C187.713,123.41 188.782,132.565 189.798,141.726 C190.072,144.208 190.416,144.498 192.892,143.942 C198.774,142.621 204.655,141.29 210.552,140.042 C212.007,139.734 212.873,139.092 213.336,137.628 C216.521,127.569 219.771,117.532 222.982,107.482 C223.155,106.94 223.181,106.351 223.301,105.623 L223.301,105.623 Z M107.583,225.542 C107.526,224.987 107.517,224.867 107.5,224.747 C106.297,215.856 105.106,206.962 103.888,198.074 C102.882,190.736 101.829,183.404 100.83,176.065 C100.551,174.01 100.342,173.801 98.305,174.25 C93.127,175.389 87.957,176.565 82.775,177.681 C80.57,178.155 80.413,178.258 80.868,180.389 C82.277,186.987 83.731,193.576 85.153,200.171 C86.752,207.59 88.379,215.003 89.893,222.439 C90.249,224.19 90.996,225.417 92.62,226.179 C94.475,227.05 96.256,228.081 98.125,228.914 C98.78,229.206 99.69,229.373 100.334,229.156 C102.384,228.463 104.388,227.613 106.358,226.712 C106.919,226.452 107.308,225.814 107.583,225.542 L107.583,225.542 Z M99.148,163.65 C98.222,156.914 97.377,150.772 96.534,144.63 C95.666,138.31 94.794,131.99 93.937,125.669 C93.792,124.601 93.517,123.796 92.153,123.992 C85.301,124.977 78.446,125.948 71.588,126.891 C69.972,127.113 69.503,127.806 69.891,129.466 C71.097,134.624 72.151,139.819 73.261,145 C74.838,152.36 76.429,159.717 77.972,167.084 C78.282,168.563 78.97,169.109 80.498,168.76 C86.191,167.458 91.906,166.253 97.589,164.91 C98.254,164.754 98.77,163.969 99.148,163.65 L99.148,163.65 Z M26.623,190.217 C26.591,190.437 26.56,190.657 26.528,190.877 C44.013,200.174 61.498,209.472 79.471,219.028 C79.341,217.683 79.34,216.927 79.187,216.204 C78.061,210.9 76.906,205.602 75.757,200.304 C74.456,194.3 73.12,188.303 71.87,182.288 C71.554,180.765 70.809,180.249 69.339,180.61 C68.17,180.897 66.99,181.137 65.814,181.397 C53.813,184.044 41.812,186.686 29.814,189.344 C28.738,189.582 27.686,189.924 26.623,190.217 L26.623,190.217 Z M150.286,162.905 C150.891,163.833 151.228,164.456 151.662,165 C156.355,170.887 161.049,176.773 165.773,182.635 C169.363,187.09 172.973,191.531 176.649,195.913 C177.092,196.441 178.178,197.006 178.685,196.813 C182.96,195.19 187.171,193.397 191.4,191.651 C192.553,191.175 192.624,190.392 192.194,189.307 C188.093,178.952 184.01,168.59 179.964,158.214 C179.432,156.85 178.739,156.408 177.23,156.753 C169.425,158.538 161.594,160.21 153.776,161.94 C152.696,162.182 151.639,162.529 150.286,162.905 L150.286,162.905 Z M93.04,37.304 C95.384,37.304 97.733,37.412 100.07,37.285 C109.746,36.758 119.417,36.148 129.092,35.596 C131.464,35.461 131.569,35.346 130.663,33.039 C127.823,25.805 124.94,18.587 122.168,11.327 C121.521,9.632 120.564,9.192 118.854,9.5 C109.153,11.247 99.712,13.864 90.581,17.604 C89.057,18.228 88.651,19.144 88.875,20.687 C89.613,25.749 90.306,30.819 90.934,35.896 C91.103,37.267 91.668,37.872 93.04,37.304 L93.04,37.304 Z M273.867,167.747 C272.198,168.367 270.676,168.883 269.191,169.492 C259.486,173.476 249.791,177.486 240.088,181.475 C237.681,182.465 237.536,182.732 238.736,185.017 C243.841,194.733 248.967,204.438 254.097,214.142 C254.333,214.59 254.677,214.982 254.979,215.411 C260.88,210.638 275.074,175.029 273.867,167.747 L273.867,167.747 Z M152.426,90.67 C143.974,91.884 136.168,93.007 128.363,94.127 C119.364,95.418 110.369,96.736 101.363,97.968 C99.76,98.187 99.428,98.944 99.857,100.289 C100.036,100.853 100.276,101.44 100.639,101.897 C103.107,105.014 105.557,108.149 108.158,111.152 C108.659,111.731 109.827,112.057 110.638,111.981 C113.512,111.712 116.364,111.216 119.225,110.809 C131.802,109.017 144.377,107.213 156.958,105.452 C158.32,105.261 158.99,104.881 158.381,103.378 C156.843,99.583 155.405,95.746 153.813,91.974 C153.542,91.331 152.708,90.924 152.426,90.67 L152.426,90.67 Z M134.448,44.571 C128.703,44.915 123.48,45.259 118.253,45.533 C110.441,45.944 102.627,46.326 94.811,46.671 C93.222,46.741 92.493,47.277 92.743,48.985 C93.474,53.987 94.169,58.995 94.795,64.011 C95.003,65.676 95.779,66.051 97.353,65.862 C104.583,64.995 111.825,64.214 119.063,63.418 C125.884,62.668 132.707,61.939 139.529,61.202 C140.724,61.073 141.554,60.678 140.987,59.239 C139.218,54.759 137.48,50.266 135.648,45.811 C135.4,45.213 134.687,44.809 134.448,44.571 L134.448,44.571 Z M141.823,7.136 C141.807,7.238 141.792,7.339 141.777,7.44 C138.891,7.593 136.006,7.773 133.119,7.89 C130.96,7.977 130.754,8.224 131.547,10.228 C134.54,17.79 137.587,25.33 140.515,32.917 C141.096,34.422 141.939,34.96 143.482,34.872 C149.013,34.554 154.547,34.299 160.08,34.018 C162.124,33.914 164.169,33.818 166.212,33.687 C167.35,33.614 168.2,33.273 168.026,31.822 C167.224,25.128 166.42,18.433 165.713,11.729 C165.548,10.171 164.87,9.483 163.372,9.334 C156.187,8.618 149.005,7.872 141.823,7.136 L141.823,7.136 Z M9.258,126.483 C16.238,125.493 23.219,124.504 30.199,123.513 C38.791,122.292 47.383,121.07 55.974,119.848 C58.073,119.55 58.315,119.189 57.861,117.126 C57.084,113.594 56.267,110.069 55.574,106.521 C55.285,105.043 54.68,104.477 53.117,104.714 C44.956,105.954 36.786,107.138 28.614,108.307 C23.365,109.058 18.112,109.786 12.851,110.452 C11.146,110.668 10.121,111.33 9.834,113.155 C9.226,117.026 8.482,120.875 7.794,124.733 C7.589,125.894 7.816,126.689 9.258,126.483 L9.258,126.483 Z M239.441,50.265 C239.236,49.656 239.226,49.371 239.08,49.228 C235.874,46.132 232.676,43.028 229.406,40 C228.984,39.609 228.176,39.475 227.552,39.49 C225.204,39.549 222.861,39.718 220.515,39.849 C212.399,40.304 204.284,40.768 196.167,41.213 C191.055,41.493 185.94,41.718 180.83,42.023 C178.769,42.146 178.425,42.665 178.691,44.658 C179.13,47.94 179.694,51.216 179.915,54.513 C180.043,56.426 180.927,56.71 182.475,56.538 C189.539,55.753 196.606,54.985 203.671,54.21 C211.935,53.303 220.198,52.396 228.461,51.486 C232.037,51.093 235.61,50.691 239.441,50.265 L239.441,50.265 Z M231.655,79.664 C230.828,79.664 230.243,79.599 229.678,79.675 C225.917,80.179 222.159,80.705 218.404,81.239 C207.729,82.757 197.058,84.297 186.382,85.793 C183.749,86.162 183.409,86.554 183.758,89.145 C184.223,92.605 184.719,96.065 185.047,99.539 C185.187,101.019 185.758,101.371 187.132,101.156 C190.761,100.588 194.404,100.108 198.042,99.594 C206.93,98.341 215.815,97.076 224.706,95.847 C226.073,95.658 227.019,95.217 227.455,93.724 C228.619,89.734 229.934,85.787 231.17,81.818 C231.359,81.21 231.454,80.572 231.655,79.664 L231.655,79.664 Z M99.56,88.882 C100.546,88.77 101.146,88.717 101.742,88.631 C107.341,87.82 112.937,86.984 118.538,86.193 C128.134,84.839 137.735,83.516 147.332,82.167 C149.519,81.859 149.726,81.516 148.949,79.478 C147.919,76.778 146.82,74.104 145.797,71.401 C145.365,70.26 144.685,69.886 143.443,70.026 C132.858,71.216 122.267,72.348 111.678,73.499 C107.252,73.979 102.825,74.462 98.398,74.942 C97.306,75.061 96.287,75.28 96.493,76.742 C96.988,80.257 97.514,83.767 98.014,87.282 C98.175,88.423 98.695,89.068 99.56,88.882 L99.56,88.882 Z M180.114,271.438 C180.27,271.575 180.427,271.712 180.584,271.849 C181.485,271.632 182.407,271.477 183.284,271.188 C193.285,267.889 202.838,263.608 211.813,258.075 C213.708,256.907 213.773,256.676 212.359,254.916 C206.472,247.581 200.57,240.257 194.66,232.94 C194.3,232.493 193.823,232.141 192.962,231.333 C188.592,244.975 184.353,258.207 180.114,271.438 L180.114,271.438 Z M164.656,275.622 C164.695,275.377 164.734,275.133 164.773,274.889 C150.236,267.158 135.698,259.427 120.789,251.498 C120.789,252.886 120.702,253.661 120.803,254.412 C121.701,261.089 122.652,267.759 123.542,274.437 C123.724,275.803 124.201,276.665 125.733,276.771 C129.814,277.054 133.9,277.784 137.964,277.662 C145.954,277.423 153.931,276.742 161.911,276.203 C162.834,276.139 163.741,275.821 164.656,275.622 L164.656,275.622 Z M235.155,60.053 C235.154,60.039 235.152,60.025 235.151,60.011 C232.1,60.342 229.048,60.672 225.999,61.004 C217.802,61.897 209.605,62.788 201.409,63.686 C195.427,64.341 189.448,65.038 183.461,65.647 C181.902,65.806 181.173,66.376 181.433,68.038 C181.74,69.997 181.972,71.972 182.149,73.948 C182.432,77.117 182.416,77.12 185.594,76.666 C191.256,75.856 196.92,75.066 202.582,74.263 C212.833,72.808 223.083,71.342 233.337,69.902 C234.544,69.733 235.316,69.191 235.671,67.99 C236.301,65.853 236.966,63.726 237.667,61.611 C238.138,60.19 237.695,59.666 236.234,59.949 C235.881,60.019 235.516,60.021 235.155,60.053 L235.155,60.053 Z M53.047,94.663 C52.781,93.413 52.622,92.646 52.453,91.88 C51.78,88.818 51.079,85.763 50.438,82.694 C49.949,80.355 49.656,80.185 47.272,80.458 C38.952,81.411 30.628,82.338 22.298,83.2 C20.947,83.34 19.982,83.781 19.471,85.041 C17.568,89.733 15.634,94.415 13.802,99.135 C13.17,100.762 13.642,101.211 15.406,100.955 C22.683,99.903 29.959,98.848 37.235,97.788 C41.946,97.102 46.661,96.437 51.36,95.676 C52.007,95.573 52.571,94.961 53.047,94.663 L53.047,94.663 Z M133.055,156.981 C132.212,155.784 131.708,154.976 131.115,154.24 C123.056,144.243 114.988,134.255 106.911,124.273 C106.459,123.714 105.995,123.083 105.391,122.756 C104.88,122.48 104.063,122.386 103.56,122.611 C103.217,122.765 102.979,123.629 103.039,124.134 C103.486,127.9 104.009,131.657 104.528,135.414 C105.673,143.706 106.841,151.995 107.969,160.289 C108.249,162.351 108.443,162.557 110.485,162.114 C116.079,160.901 121.673,159.684 127.259,158.438 C129.056,158.039 130.832,157.544 133.055,156.981 L133.055,156.981 Z M216.352,30.673 C215.99,30.139 215.902,29.883 215.723,29.767 C214.21,28.778 212.699,27.787 211.155,26.85 C200.624,20.463 189.398,15.684 177.526,12.429 C175.357,11.834 175.107,11.987 175.318,14.154 C175.855,19.665 176.522,25.163 177.125,30.668 C177.365,32.865 177.686,33.123 179.838,32.96 C182.96,32.725 186.083,32.501 189.21,32.338 C197.089,31.927 204.972,31.563 212.851,31.151 C213.912,31.095 214.965,30.867 216.352,30.673 L216.352,30.673 Z M98.948,240.077 C95.758,240.02 94.083,242.009 94.709,244.905 C96.49,253.145 98.221,261.397 100.093,269.616 C100.277,270.422 101.178,271.427 101.957,271.674 C105.343,272.746 108.799,273.602 112.246,274.473 C113.919,274.895 114.358,274.476 114.122,272.766 C112.947,264.236 111.765,255.708 110.529,247.187 C110.445,246.606 110.032,245.857 109.549,245.586 C106.294,243.756 102.981,242.03 99.678,240.286 C99.42,240.149 99.105,240.12 98.948,240.077 L98.948,240.077 Z M92.326,113.898 C92.032,111.639 91.682,109.912 91.61,108.174 C91.488,105.246 90.013,103.026 88.072,101.079 C87.534,100.539 86.489,100.134 85.747,100.226 C79.295,101.035 72.86,101.979 66.417,102.865 C65.044,103.054 64.339,103.63 64.679,105.149 C65.522,108.911 66.328,112.681 67.111,116.455 C67.39,117.798 68.117,118.215 69.446,117.982 C71.698,117.586 73.968,117.286 76.232,116.958 C81.06,116.257 85.894,115.595 90.712,114.832 C91.358,114.73 91.927,114.139 92.326,113.898 L92.326,113.898 Z M58.327,49.024 C58.599,49.582 58.683,49.877 58.859,50.096 C63.452,55.831 68.029,61.579 72.695,67.254 C73.14,67.796 74.171,68.156 74.9,68.111 C78.02,67.917 81.128,67.533 84.242,67.23 C85.587,67.099 85.858,66.383 85.672,65.118 C84.877,59.701 84.151,54.273 83.436,48.845 C83.298,47.797 82.781,47.34 81.764,47.413 C80.504,47.503 79.247,47.648 77.986,47.711 C72.337,47.994 66.685,48.242 61.036,48.539 C60.214,48.583 59.403,48.826 58.327,49.024 L58.327,49.024 Z M237.047,93.772 C238.154,93.772 238.87,93.857 239.559,93.759 C247.73,92.587 255.894,91.375 264.065,90.209 C265.432,90.014 265.915,89.455 265.267,88.158 C263.383,84.387 261.547,80.589 259.561,76.871 C259.253,76.297 258.208,75.707 257.582,75.78 C252.977,76.315 248.392,77.027 243.798,77.661 C242.581,77.829 241.889,78.458 241.525,79.645 C240.588,82.697 239.56,85.72 238.586,88.76 C238.093,90.293 237.639,91.837 237.047,93.772 L237.047,93.772 Z M170.659,54.745 C170.307,51.679 169.903,48.091 169.48,44.504 C169.345,43.364 168.907,42.62 167.52,42.711 C163.073,43.002 158.622,43.207 154.172,43.452 C151.827,43.581 149.477,43.665 147.14,43.878 C145.272,44.049 145.047,44.462 145.727,46.201 C147.221,50.017 148.873,53.776 150.216,57.643 C150.88,59.555 151.889,59.93 153.729,59.684 C158.505,59.047 163.299,58.541 168.093,58.051 C170.758,57.779 170.765,57.841 170.659,54.745 L170.659,54.745 Z M199.103,181.076 C199.493,180.219 199.748,179.763 199.913,179.276 C200.608,177.224 201.29,175.168 201.954,173.106 C204.224,166.058 206.496,159.01 208.74,151.954 C209.314,150.146 209.037,149.829 207.237,150.215 C202.411,151.251 197.588,152.301 192.785,153.435 C192.237,153.564 191.374,154.314 191.418,154.688 C191.866,158.564 192.085,162.53 193.133,166.256 C194.366,170.64 196.348,174.815 198.028,179.072 C198.254,179.65 198.614,180.176 199.103,181.076 L199.103,181.076 Z M65.682,253.606 C65.666,253.832 65.65,254.057 65.633,254.283 C73.174,259.328 80.994,263.848 89.771,267.248 C89.771,266.408 89.832,266.048 89.762,265.716 C88.465,259.524 87.145,253.336 85.847,247.144 C85.558,245.766 84.826,245.574 83.61,246.087 C79.502,247.823 75.369,249.502 71.252,251.217 C69.388,251.995 67.538,252.809 65.682,253.606 L65.682,253.606 Z M43.326,50.642 C39.633,52.842 26.597,70.48 26.489,73.286 C26.892,73.305 27.302,73.376 27.699,73.334 C33.687,72.703 39.675,72.075 45.658,71.405 C47.753,71.171 47.89,70.933 47.451,68.871 C46.297,63.451 45.136,58.032 43.958,52.617 C43.825,51.999 43.575,51.407 43.326,50.642 L43.326,50.642 Z M54.979,38.428 C55.21,38.752 55.441,39.076 55.672,39.4 C56.249,39.453 56.829,39.575 57.402,39.547 C62.812,39.285 68.221,38.997 73.63,38.717 C75.673,38.611 77.716,38.505 79.759,38.397 C81.178,38.322 81.971,37.867 81.698,36.158 C81.079,32.297 80.63,28.409 80.109,24.532 C79.922,23.145 79.288,22.809 78.009,23.504 C70.471,27.597 63.344,32.301 56.65,37.666 C56.187,38.037 55.54,38.179 54.979,38.428 L54.979,38.428 Z M80.06,91.561 C79.619,90.762 79.449,90.316 79.164,89.963 C76.334,86.45 73.456,82.975 70.658,79.437 C69.799,78.351 68.816,78.049 67.505,78.236 C65.543,78.515 63.567,78.712 61.594,78.907 C59.453,79.12 59.121,79.539 59.591,81.691 C60.373,85.274 61.219,88.843 61.954,92.436 C62.213,93.699 62.735,94.14 64.056,93.934 C67.263,93.435 70.494,93.095 73.707,92.636 C75.712,92.35 77.702,91.964 80.06,91.561 L80.06,91.561 Z M169.059,67.295 C169.055,67.262 169.051,67.229 169.048,67.196 C164.921,67.674 160.797,68.179 156.665,68.615 C155.23,68.766 154.736,69.278 155.337,70.718 C156.473,73.441 157.548,76.192 158.591,78.953 C159.043,80.15 159.778,80.394 160.989,80.194 C164.494,79.614 168.011,79.081 171.54,78.671 C173.051,78.496 173.3,77.754 173.128,76.475 C172.769,73.792 172.418,71.106 172.15,68.413 C172.039,67.293 171.533,66.934 170.492,67.111 C170.018,67.191 169.536,67.234 169.059,67.295 L169.059,67.295 Z M207.947,184.548 C208.845,184.351 209.21,184.325 209.531,184.194 C213.938,182.387 218.323,180.522 222.752,178.772 C224.271,178.172 224.482,177.431 223.729,176.041 C221.314,171.588 218.985,167.089 216.605,162.619 C216.398,162.231 216.054,161.915 215.443,161.152 C212.898,169.091 210.49,176.61 207.947,184.548 L207.947,184.548 Z M169.218,103.713 C171.348,103.405 173.014,103.145 174.687,102.928 C175.747,102.791 176.145,102.199 176.024,101.186 C175.549,97.178 175.073,93.17 174.596,89.163 C174.478,88.17 174.026,87.621 172.919,87.784 C170.058,88.206 167.193,88.615 164.325,88.986 C163.069,89.148 162.825,89.777 163.258,90.865 C164.775,94.674 166.242,98.502 167.828,102.281 C168.098,102.923 168.86,103.358 169.218,103.713 L169.218,103.713 Z M200.453,210.381 C200.209,210.398 199.965,210.415 199.722,210.432 C198.849,213.087 198.035,215.763 197.079,218.388 C196.544,219.859 196.774,221.019 197.755,222.214 C201.42,226.683 205.029,231.196 208.655,235.695 C209.215,236.389 209.752,237.101 210.299,237.804 C210.552,237.634 210.805,237.463 211.058,237.293 C207.522,228.323 203.987,219.352 200.453,210.381 L200.453,210.381 Z M178.51,128.666 C178.657,128.617 178.805,128.568 178.952,128.52 C178.898,127.631 178.884,126.739 178.786,125.855 C178.388,122.268 177.884,118.691 177.573,115.097 C177.31,112.052 177.064,111.802 174.063,112.303 C172.622,112.544 172.036,113.092 172.651,114.608 C174.416,118.958 176.108,123.337 177.849,127.698 C177.99,128.05 178.286,128.343 178.51,128.666 L178.51,128.666 Z M192.657,202.006 C192.483,201.788 192.309,201.569 192.136,201.351 C189.642,202.422 187.141,203.477 184.667,204.595 C184.481,204.678 184.319,205.337 184.444,205.501 C185.95,207.469 187.512,209.395 189.06,211.331 C189.289,211.271 189.517,211.21 189.746,211.15 C190.716,208.102 191.687,205.054 192.657,202.006 L192.657,202.006 Z M81.41,76.846 C81.231,77.007 81.053,77.169 80.874,77.33 C83.092,80.252 85.304,83.179 88.103,85.719 C88.042,82.857 87.761,80.132 87.254,77.449 C87.169,76.999 86.118,76.452 85.503,76.439 C84.142,76.409 82.774,76.691 81.41,76.846 L81.41,76.846 Z M248.554,60.072 C248.297,60.11 248.041,60.147 247.785,60.185 C247.056,62.494 246.3,64.795 245.639,67.124 C245.579,67.332 246.167,67.999 246.402,67.974 C248.303,67.767 250.203,67.498 252.073,67.107 C252.367,67.045 252.817,66.069 252.678,65.86 C251.367,63.888 249.944,61.991 248.554,60.072 L248.554,60.072 Z M56.047,61.405 C55.811,61.514 55.574,61.624 55.338,61.733 C55.892,64.23 56.421,66.733 57.032,69.216 C57.107,69.519 57.63,69.932 57.931,69.92 C59.261,69.869 60.586,69.681 61.912,69.543 C61.994,69.341 62.075,69.14 62.157,68.939 C60.121,66.427 58.084,63.916 56.047,61.405 L56.047,61.405 Z" id="Shape" fill="#FFFFFF" sketch:type="MSShapeGroup"></path>
            <path d="M6.619,142.887 C6.619,141.32 6.644,139.752 6.611,138.184 C6.581,136.711 7.288,135.981 8.724,135.783 C22.089,133.936 35.452,132.077 48.813,130.211 C51.975,129.77 55.144,129.359 58.283,128.787 C59.755,128.518 60.396,128.975 60.693,130.377 C61.928,136.212 63.219,142.036 64.478,147.866 C66.016,154.991 67.517,162.125 69.097,169.242 C69.398,170.597 69.071,171.265 67.693,171.568 C50.335,175.386 32.984,179.239 15.625,183.056 C13.023,183.628 12.938,183.582 12.187,181.034 C9.742,172.745 7.977,164.318 7.283,155.691 C6.94,151.431 6.699,147.162 6.412,142.897 C6.48,142.894 6.549,142.89 6.619,142.887 L6.619,142.887 Z" id="Shape" fill="#000000" sketch:type="MSShapeGroup"></path>
            <path d="M185.966,222.662 C185.408,224.644 184.941,226.515 184.356,228.349 C181.094,238.566 177.806,248.774 174.52,258.982 C173.763,261.334 172.914,263.657 172.222,266.027 C171.746,267.662 170.943,267.782 169.566,267.042 C163.303,263.673 157.01,260.359 150.733,257.018 C143.924,253.393 137.118,249.761 130.314,246.129 C127.018,244.369 123.681,242.677 120.466,240.78 C119.663,240.306 118.883,239.218 118.73,238.306 C117.467,230.765 117.287,232.318 123.249,229.821 C134.811,224.979 146.404,220.217 157.987,215.427 C162.944,213.377 167.922,211.38 172.856,209.276 C174.337,208.644 175.301,208.948 176.275,210.184 C179.183,213.878 182.183,217.501 185.125,221.17 C185.482,221.62 185.7,222.184 185.966,222.662 L185.966,222.662 Z" id="Shape" fill="#000000" sketch:type="MSShapeGroup"></path>
            <path d="M168.575,200.958 C167.088,201.647 165.917,202.245 164.707,202.744 C149.322,209.085 133.933,215.412 118.543,221.744 C116.627,222.532 116.513,222.484 116.243,220.527 C114.583,208.47 112.939,196.412 111.277,184.356 C110.816,181.014 110.273,177.682 109.846,174.336 C109.554,172.038 109.78,171.715 112.019,171.212 C120.84,169.231 129.665,167.265 138.507,165.387 C139.147,165.251 140.211,165.644 140.631,166.157 C147.995,175.169 155.289,184.24 162.599,193.296 C164.152,195.22 165.72,197.132 167.263,199.065 C167.667,199.57 168.005,200.131 168.575,200.958 L168.575,200.958 Z" id="Shape" fill="#000000" sketch:type="MSShapeGroup"></path>
            <path d="M116.03,120.741 C117.842,120.393 119.227,120.066 120.631,119.866 C133.218,118.067 145.813,116.314 158.397,114.492 C162.614,113.882 162.52,113.841 164.066,117.842 C167.608,127.007 171.242,136.137 174.836,145.283 C175.712,147.513 175.589,147.786 173.204,148.314 C164.2,150.306 155.175,152.212 146.191,154.293 C144.11,154.775 142.753,154.25 141.5,152.654 C138.484,148.812 135.395,145.029 132.335,141.221 C127.424,135.11 122.513,128.999 117.607,122.884 C117.162,122.329 116.761,121.737 116.03,120.741 L116.03,120.741 Z" id="Shape" fill="#000000" sketch:type="MSShapeGroup"></path>
            <path d="M228.645,186.416 C229.066,186.91 229.7,187.435 230.055,188.107 C233.243,194.13 236.377,200.183 239.54,206.219 C242.423,211.721 245.277,217.238 248.247,222.693 C248.977,224.035 248.826,224.984 247.928,226.117 C241.793,233.85 234.922,240.855 227.311,247.134 C225.677,248.482 225.294,248.391 224.508,246.395 C220.883,237.199 217.292,227.99 213.681,218.789 C210.994,211.942 208.327,205.088 205.578,198.266 C204.995,196.817 205.087,195.917 206.654,195.282 C213.525,192.496 220.376,189.657 227.236,186.844 C227.568,186.708 227.926,186.632 228.645,186.416 L228.645,186.416 Z" id="Shape" fill="#000000" sketch:type="MSShapeGroup"></path>
            <path d="M276.964,142.745 C276.675,146.949 276.458,151.16 276.031,155.35 C275.955,156.102 275.16,157.122 274.448,157.419 C261.321,162.886 248.152,168.248 235.01,173.676 C233.756,174.194 233.027,174.014 232.384,172.791 C228.488,165.374 224.526,157.993 220.637,150.573 C219.338,148.096 219.632,147.489 222.359,146.879 C234.353,144.196 246.356,141.552 258.354,138.891 C263.589,137.73 268.824,136.564 274.058,135.4 C276.129,134.939 276.512,135.151 276.661,137.31 C276.785,139.11 276.686,140.925 276.686,142.733 C276.778,142.738 276.871,142.741 276.964,142.745 L276.964,142.745 Z" id="Shape" fill="#000000" sketch:type="MSShapeGroup"></path>
            <path d="M275.492,124.325 C275.759,125.495 274.876,125.795 273.846,126.022 C265.839,127.787 257.834,129.563 249.829,131.339 C241.883,133.103 233.936,134.861 225.994,136.642 C223.493,137.203 223.194,136.969 223.937,134.617 C226.95,125.073 230.013,115.546 233.022,106.001 C233.518,104.426 234.435,103.709 236.106,103.484 C246.618,102.068 257.119,100.568 267.618,99.062 C268.817,98.891 269.613,99.157 269.998,100.374 C272.455,108.153 274.419,116.045 275.492,124.325 L275.492,124.325 Z" id="Shape" fill="#000000" sketch:type="MSShapeGroup"></path>
            <path d="M18.969,197.537 C19.609,197.788 20.28,197.978 20.883,198.298 C35.194,205.906 49.495,213.534 63.804,221.146 C69.07,223.948 74.282,226.868 79.66,229.437 C82.288,230.692 82.962,232.764 83.204,235.208 C83.251,235.683 82.567,236.493 82.037,236.722 C76.059,239.291 70.048,241.782 64.04,244.282 C62.149,245.069 60.218,245.763 58.354,246.609 C56.967,247.239 55.889,247.031 54.729,246.046 C46.147,238.749 38.288,230.738 32.026,221.371 C27.551,214.677 23.73,207.545 19.65,200.589 C19.177,199.783 18.918,198.853 18.559,197.98 C18.696,197.832 18.833,197.684 18.969,197.537 L18.969,197.537 Z" id="Shape" fill="#000000" sketch:type="MSShapeGroup"></path>
            <path d="M223.301,105.623 C223.181,106.351 223.155,106.94 222.983,107.482 C219.771,117.531 216.521,127.569 213.337,137.628 C212.874,139.092 212.008,139.734 210.553,140.042 C204.656,141.29 198.775,142.622 192.893,143.942 C190.417,144.498 190.074,144.208 189.799,141.726 C188.783,132.565 187.714,123.41 186.665,114.253 C186.644,114.073 186.609,113.895 186.59,113.715 C186.259,110.689 186.332,110.566 189.267,110.151 C200.009,108.633 210.753,107.129 221.499,105.632 C222.01,105.56 222.541,105.623 223.301,105.623 L223.301,105.623 Z" id="Shape" fill="#000000" sketch:type="MSShapeGroup"></path>
            <path d="M107.583,225.542 C107.308,225.814 106.92,226.453 106.358,226.71 C104.388,227.611 102.384,228.461 100.334,229.154 C99.69,229.371 98.78,229.204 98.125,228.912 C96.255,228.079 94.475,227.047 92.62,226.177 C90.996,225.415 90.249,224.188 89.893,222.437 C88.379,215.001 86.752,207.588 85.153,200.169 C83.732,193.574 82.278,186.985 80.868,180.387 C80.413,178.256 80.57,178.153 82.775,177.679 C87.958,176.563 93.128,175.387 98.305,174.248 C100.342,173.8 100.551,174.009 100.83,176.063 C101.83,183.402 102.882,190.734 103.888,198.072 C105.106,206.961 106.297,215.854 107.5,224.745 C107.516,224.866 107.525,224.987 107.583,225.542 L107.583,225.542 Z" id="Shape" fill="#000000" sketch:type="MSShapeGroup"></path>
            <path d="M99.148,163.65 C98.77,163.969 98.254,164.754 97.59,164.911 C91.907,166.254 86.192,167.459 80.499,168.761 C78.971,169.111 78.283,168.564 77.973,167.085 C76.43,159.718 74.839,152.361 73.262,145.001 C72.152,139.82 71.098,134.625 69.892,129.467 C69.504,127.807 69.973,127.114 71.589,126.892 C78.447,125.948 85.302,124.978 92.154,123.993 C93.517,123.797 93.793,124.602 93.938,125.67 C94.794,131.991 95.667,138.311 96.535,144.631 C97.377,150.772 98.222,156.914 99.148,163.65 L99.148,163.65 Z" id="Shape" fill="#000000" sketch:type="MSShapeGroup"></path>
            <path d="M26.623,190.217 C27.686,189.924 28.738,189.582 29.814,189.343 C41.812,186.685 53.814,184.043 65.814,181.396 C66.99,181.136 68.17,180.896 69.339,180.609 C70.81,180.249 71.554,180.764 71.87,182.287 C73.12,188.302 74.455,194.298 75.757,200.303 C76.905,205.602 78.061,210.899 79.187,216.203 C79.34,216.926 79.341,217.682 79.471,219.027 C61.498,209.47 44.013,200.173 26.528,190.876 C26.56,190.657 26.591,190.438 26.623,190.217 L26.623,190.217 Z" id="Shape" fill="#000000" sketch:type="MSShapeGroup"></path>
            <path d="M150.286,162.905 C151.639,162.529 152.696,162.181 153.777,161.942 C161.595,160.212 169.426,158.54 177.231,156.755 C178.741,156.41 179.433,156.852 179.965,158.216 C184.012,168.591 188.095,178.954 192.195,189.309 C192.625,190.393 192.554,191.177 191.401,191.653 C187.172,193.399 182.962,195.192 178.686,196.815 C178.179,197.007 177.093,196.442 176.65,195.915 C172.973,191.532 169.364,187.091 165.774,182.637 C161.049,176.776 156.356,170.889 151.663,165.002 C151.228,164.456 150.891,163.833 150.286,162.905 L150.286,162.905 Z" id="Shape" fill="#000000" sketch:type="MSShapeGroup"></path>
            <path d="M93.04,37.304 C91.668,37.871 91.103,37.267 90.934,35.896 C90.307,30.819 89.614,25.749 88.875,20.687 C88.65,19.144 89.057,18.229 90.581,17.604 C99.712,13.864 109.153,11.247 118.854,9.5 C120.563,9.192 121.521,9.632 122.168,11.327 C124.94,18.587 127.823,25.805 130.663,33.039 C131.569,35.345 131.464,35.46 129.092,35.596 C119.417,36.148 109.746,36.758 100.07,37.285 C97.733,37.413 95.384,37.304 93.04,37.304 L93.04,37.304 Z" id="Shape" fill="#000000" sketch:type="MSShapeGroup"></path>
            <path d="M273.867,167.747 C275.074,175.029 260.88,210.638 254.98,215.411 C254.678,214.982 254.334,214.59 254.098,214.142 C248.968,204.439 243.842,194.733 238.737,185.017 C237.537,182.732 237.681,182.465 240.089,181.475 C249.791,177.485 259.486,173.476 269.192,169.492 C270.676,168.882 272.198,168.366 273.867,167.747 L273.867,167.747 Z" id="Shape" fill="#000000" sketch:type="MSShapeGroup"></path>
            <path d="M152.426,90.67 C152.708,90.924 153.542,91.331 153.813,91.974 C155.405,95.746 156.843,99.583 158.381,103.378 C158.99,104.88 158.32,105.261 156.958,105.452 C144.377,107.213 131.801,109.017 119.225,110.809 C116.364,111.217 113.512,111.712 110.638,111.981 C109.826,112.057 108.659,111.731 108.158,111.152 C105.557,108.149 103.107,105.014 100.639,101.897 C100.277,101.439 100.036,100.853 99.857,100.289 C99.428,98.943 99.761,98.187 101.363,97.968 C110.37,96.737 119.365,95.418 128.363,94.127 C136.168,93.007 143.974,91.885 152.426,90.67 L152.426,90.67 Z" id="Shape" fill="#000000" sketch:type="MSShapeGroup"></path>
            <path d="M134.448,44.571 C134.687,44.809 135.401,45.214 135.646,45.811 C137.478,50.266 139.216,54.758 140.985,59.239 C141.553,60.677 140.723,61.072 139.527,61.202 C132.705,61.939 125.882,62.669 119.061,63.418 C111.823,64.213 104.582,64.995 97.351,65.862 C95.778,66.05 95.001,65.675 94.793,64.011 C94.167,58.995 93.472,53.987 92.741,48.985 C92.491,47.277 93.22,46.741 94.809,46.671 C102.625,46.326 110.439,45.943 118.251,45.533 C123.479,45.258 128.703,44.915 134.448,44.571 L134.448,44.571 Z" id="Shape" fill="#000000" sketch:type="MSShapeGroup"></path>
            <path d="M163.371,9.334 C164.869,9.483 165.547,10.171 165.712,11.729 C166.42,18.434 167.223,25.128 168.025,31.822 C168.199,33.273 167.348,33.614 166.211,33.687 C164.169,33.818 162.124,33.914 160.079,34.018 C154.546,34.299 149.012,34.554 143.481,34.872 C141.938,34.96 141.095,34.422 140.514,32.917 C137.586,25.33 134.539,17.79 131.546,10.228 C130.753,8.224 130.96,7.977 133.118,7.89 C136.005,7.773 138.89,7.593 141.776,7.44 C152.770374,7.44 156.187,8.618 163.371,9.334 Z" id="Shape" fill="#000000" sketch:type="MSShapeGroup"></path>
            <path d="M9.258,126.483 C7.816,126.69 7.589,125.894 7.795,124.733 C8.483,120.875 9.227,117.025 9.835,113.155 C10.122,111.33 11.147,110.668 12.852,110.452 C18.112,109.786 23.366,109.058 28.615,108.307 C36.787,107.138 44.957,105.954 53.118,104.714 C54.681,104.477 55.286,105.043 55.575,106.521 C56.268,110.069 57.085,113.594 57.862,117.126 C58.316,119.188 58.073,119.549 55.975,119.848 C47.384,121.07 38.792,122.292 30.2,123.513 C23.219,124.504 16.239,125.493 9.258,126.483 L9.258,126.483 Z" id="Shape" fill="#000000" sketch:type="MSShapeGroup"></path>
            <path d="M239.441,50.265 C235.61,50.692 232.037,51.094 228.462,51.488 C220.199,52.398 211.936,53.305 203.672,54.212 C196.607,54.987 189.54,55.755 182.476,56.54 C180.928,56.712 180.044,56.427 179.916,54.515 C179.695,51.218 179.132,47.942 178.692,44.66 C178.425,42.667 178.77,42.148 180.831,42.025 C185.941,41.72 191.056,41.495 196.168,41.215 C204.284,40.77 212.399,40.305 220.516,39.851 C222.862,39.72 225.205,39.551 227.553,39.492 C228.176,39.476 228.985,39.611 229.407,40.002 C232.677,43.029 235.875,46.134 239.081,49.23 C239.227,49.371 239.236,49.655 239.441,50.265 L239.441,50.265 Z" id="Shape" fill="#000000" sketch:type="MSShapeGroup"></path>
            <path d="M231.655,79.664 C231.454,80.572 231.359,81.21 231.17,81.819 C229.934,85.788 228.619,89.735 227.455,93.725 C227.019,95.218 226.073,95.659 224.706,95.848 C215.815,97.077 206.93,98.341 198.042,99.595 C194.404,100.108 190.761,100.588 187.132,101.157 C185.758,101.372 185.187,101.02 185.047,99.54 C184.719,96.066 184.223,92.606 183.758,89.146 C183.409,86.556 183.749,86.163 186.382,85.794 C197.059,84.297 207.73,82.757 218.404,81.24 C222.16,80.706 225.918,80.18 229.678,79.676 C230.243,79.599 230.828,79.664 231.655,79.664 L231.655,79.664 Z" id="Shape" fill="#000000" sketch:type="MSShapeGroup"></path>
            <path d="M99.56,88.882 C98.696,89.068 98.176,88.423 98.014,87.281 C97.514,83.766 96.989,80.256 96.493,76.741 C96.287,75.28 97.306,75.06 98.398,74.941 C102.825,74.461 107.252,73.978 111.678,73.498 C122.267,72.348 132.858,71.215 143.443,70.025 C144.684,69.885 145.364,70.259 145.797,71.4 C146.819,74.103 147.919,76.777 148.949,79.477 C149.726,81.515 149.519,81.858 147.332,82.166 C137.735,83.515 128.134,84.837 118.538,86.192 C112.936,86.983 107.341,87.819 101.742,88.63 C101.146,88.718 100.545,88.77 99.56,88.882 L99.56,88.882 Z" id="Shape" fill="#000000" sketch:type="MSShapeGroup"></path>
            <path d="M180.114,271.438 C184.352,258.206 188.592,244.975 192.962,231.333 C193.823,232.141 194.3,232.494 194.66,232.94 C200.57,240.257 206.472,247.58 212.359,254.916 C213.773,256.676 213.708,256.907 211.813,258.075 C202.837,263.608 193.285,267.888 183.284,271.188 C182.407,271.477 181.485,271.632 180.584,271.849 C180.428,271.712 180.271,271.576 180.114,271.438 L180.114,271.438 Z" id="Shape" fill="#000000" sketch:type="MSShapeGroup"></path>
            <path d="M164.656,275.622 C163.741,275.822 162.835,276.14 161.91,276.202 C153.931,276.741 145.953,277.423 137.963,277.661 C133.899,277.783 129.813,277.053 125.732,276.77 C124.2,276.664 123.723,275.802 123.541,274.436 C122.651,267.758 121.701,261.087 120.802,254.411 C120.701,253.661 120.788,252.885 120.788,251.497 C135.698,259.426 150.235,267.157 164.772,274.888 C164.734,275.132 164.695,275.377 164.656,275.622 L164.656,275.622 Z" id="Shape" fill="#000000" sketch:type="MSShapeGroup"></path>
            <path d="M235.155,60.053 C235.515,60.02 235.881,60.019 236.234,59.95 C237.695,59.667 238.137,60.191 237.667,61.612 C236.966,63.727 236.301,65.854 235.671,67.991 C235.317,69.191 234.544,69.734 233.337,69.903 C223.083,71.342 212.833,72.809 202.582,74.264 C196.92,75.067 191.256,75.858 185.594,76.667 C182.415,77.121 182.432,77.119 182.149,73.949 C181.972,71.973 181.74,69.998 181.433,68.039 C181.173,66.377 181.903,65.807 183.461,65.648 C189.448,65.038 195.427,64.342 201.409,63.687 C209.605,62.789 217.802,61.898 225.999,61.005 C229.049,60.673 232.101,60.343 235.151,60.012 C235.152,60.025 235.154,60.039 235.155,60.053 L235.155,60.053 Z" id="Shape" fill="#000000" sketch:type="MSShapeGroup"></path>
            <path d="M53.047,94.663 C52.571,94.961 52.007,95.573 51.361,95.677 C46.662,96.439 41.947,97.103 37.236,97.789 C29.96,98.849 22.684,99.903 15.407,100.956 C13.642,101.211 13.171,100.763 13.803,99.136 C15.635,94.415 17.569,89.734 19.472,85.042 C19.983,83.782 20.948,83.341 22.299,83.201 C30.629,82.339 38.953,81.412 47.273,80.459 C49.657,80.186 49.95,80.355 50.439,82.695 C51.08,85.763 51.781,88.819 52.454,91.881 C52.622,92.646 52.781,93.413 53.047,94.663 L53.047,94.663 Z" id="Shape" fill="#000000" sketch:type="MSShapeGroup"></path>
            <path d="M133.055,156.981 C130.832,157.544 129.056,158.039 127.259,158.44 C121.672,159.686 116.079,160.903 110.485,162.116 C108.443,162.558 108.25,162.353 107.969,160.291 C106.842,151.997 105.673,143.708 104.528,135.416 C104.009,131.659 103.486,127.902 103.039,124.136 C102.979,123.631 103.216,122.766 103.56,122.613 C104.063,122.388 104.88,122.481 105.391,122.758 C105.995,123.085 106.459,123.716 106.911,124.275 C114.988,134.257 123.057,144.246 131.115,154.242 C131.708,154.976 132.211,155.784 133.055,156.981 L133.055,156.981 Z" id="Shape" fill="#000000" sketch:type="MSShapeGroup"></path>
            <path d="M216.352,30.673 C214.965,30.867 213.913,31.095 212.85,31.152 C204.971,31.564 197.088,31.928 189.209,32.339 C186.082,32.502 182.959,32.726 179.837,32.961 C177.685,33.123 177.364,32.866 177.124,30.669 C176.521,25.164 175.854,19.666 175.317,14.155 C175.106,11.988 175.356,11.836 177.525,12.43 C189.397,15.685 200.623,20.464 211.154,26.851 C212.698,27.788 214.21,28.779 215.722,29.768 C215.901,29.883 215.989,30.139 216.352,30.673 L216.352,30.673 Z" id="Shape" fill="#000000" sketch:type="MSShapeGroup"></path>
            <path d="M98.948,240.077 C99.105,240.12 99.42,240.149 99.678,240.286 C102.98,242.031 106.294,243.757 109.549,245.586 C110.033,245.857 110.445,246.607 110.529,247.187 C111.765,255.708 112.947,264.236 114.122,272.766 C114.358,274.476 113.919,274.895 112.246,274.473 C108.799,273.602 105.343,272.746 101.957,271.674 C101.178,271.427 100.276,270.422 100.093,269.616 C98.221,261.397 96.49,253.145 94.709,244.905 C94.083,242.009 95.758,240.02 98.948,240.077 L98.948,240.077 Z" id="Shape" fill="#000000" sketch:type="MSShapeGroup"></path>
            <path d="M92.326,113.898 C91.927,114.139 91.358,114.73 90.712,114.832 C85.894,115.595 81.06,116.257 76.232,116.958 C73.968,117.286 71.698,117.586 69.446,117.982 C68.117,118.215 67.39,117.798 67.111,116.455 C66.328,112.681 65.522,108.911 64.679,105.149 C64.339,103.63 65.044,103.054 66.417,102.865 C72.86,101.979 79.295,101.035 85.747,100.226 C86.489,100.133 87.534,100.539 88.072,101.079 C90.013,103.026 91.489,105.246 91.61,108.174 C91.682,109.913 92.032,111.639 92.326,113.898 L92.326,113.898 Z" id="Shape" fill="#000000" sketch:type="MSShapeGroup"></path>
            <path d="M58.327,49.024 C59.404,48.826 60.215,48.583 61.036,48.54 C66.685,48.243 72.336,47.995 77.986,47.712 C79.247,47.649 80.504,47.504 81.764,47.414 C82.781,47.341 83.298,47.798 83.436,48.846 C84.151,54.274 84.876,59.701 85.672,65.119 C85.858,66.385 85.588,67.1 84.242,67.231 C81.128,67.534 78.02,67.918 74.9,68.112 C74.171,68.157 73.14,67.797 72.695,67.255 C68.028,61.58 63.451,55.832 58.859,50.097 C58.683,49.877 58.599,49.583 58.327,49.024 L58.327,49.024 Z" id="Shape" fill="#000000" sketch:type="MSShapeGroup"></path>
            <path d="M237.047,93.772 C237.639,91.837 238.093,90.293 238.584,88.761 C239.559,85.721 240.587,82.698 241.523,79.646 C241.887,78.459 242.58,77.83 243.796,77.662 C248.39,77.028 252.975,76.316 257.58,75.781 C258.207,75.708 259.252,76.298 259.559,76.872 C261.545,80.589 263.381,84.387 265.265,88.159 C265.912,89.456 265.43,90.015 264.063,90.21 C255.892,91.376 247.728,92.588 239.557,93.76 C238.87,93.857 238.154,93.772 237.047,93.772 L237.047,93.772 Z" id="Shape" fill="#000000" sketch:type="MSShapeGroup"></path>
            <path d="M170.659,54.745 C170.764,57.841 170.758,57.779 168.094,58.052 C163.3,58.542 158.506,59.048 153.73,59.685 C151.89,59.931 150.881,59.556 150.217,57.644 C148.874,53.777 147.221,50.018 145.728,46.202 C145.048,44.463 145.273,44.05 147.141,43.879 C149.478,43.666 151.828,43.582 154.173,43.453 C158.622,43.208 163.074,43.003 167.521,42.712 C168.909,42.621 169.347,43.365 169.481,44.505 C169.903,48.091 170.308,51.679 170.659,54.745 L170.659,54.745 Z" id="Shape" fill="#000000" sketch:type="MSShapeGroup"></path>
            <path d="M199.103,181.076 C198.615,180.176 198.254,179.65 198.027,179.073 C196.347,174.816 194.366,170.641 193.132,166.257 C192.084,162.531 191.865,158.565 191.417,154.689 C191.373,154.315 192.236,153.565 192.784,153.436 C197.587,152.302 202.41,151.251 207.236,150.216 C209.036,149.83 209.313,150.148 208.739,151.955 C206.495,159.011 204.222,166.059 201.953,173.107 C201.289,175.169 200.607,177.225 199.912,179.277 C199.747,179.762 199.492,180.219 199.103,181.076 L199.103,181.076 Z" id="Shape" fill="#000000" sketch:type="MSShapeGroup"></path>
            <path d="M65.682,253.606 C67.538,252.809 69.388,251.995 71.252,251.218 C75.369,249.502 79.502,247.824 83.61,246.088 C84.826,245.574 85.558,245.767 85.847,247.145 C87.145,253.337 88.465,259.525 89.762,265.717 C89.831,266.049 89.771,266.409 89.771,267.249 C80.994,263.849 73.173,259.329 65.633,254.284 C65.649,254.057 65.666,253.832 65.682,253.606 L65.682,253.606 Z" id="Shape" fill="#000000" sketch:type="MSShapeGroup"></path>
            <path d="M43.326,50.642 C43.575,51.407 43.825,51.999 43.959,52.617 C45.136,58.033 46.297,63.451 47.452,68.871 C47.891,70.933 47.754,71.17 45.659,71.405 C39.676,72.075 33.687,72.703 27.7,73.334 C27.303,73.376 26.892,73.305 26.49,73.286 C26.597,70.479 39.633,52.841 43.326,50.642 L43.326,50.642 Z" id="Shape" fill="#000000" sketch:type="MSShapeGroup"></path>
            <path d="M54.979,38.428 C55.54,38.179 56.187,38.037 56.65,37.666 C63.344,32.301 70.472,27.597 78.009,23.504 C79.288,22.81 79.923,23.146 80.109,24.532 C80.63,28.409 81.079,32.297 81.698,36.158 C81.971,37.867 81.178,38.323 79.759,38.397 C77.716,38.504 75.673,38.611 73.63,38.717 C68.221,38.997 62.812,39.285 57.402,39.547 C56.829,39.574 56.249,39.452 55.672,39.4 C55.44,39.076 55.209,38.751 54.979,38.428 L54.979,38.428 Z" id="Shape" fill="#000000" sketch:type="MSShapeGroup"></path>
            <path d="M80.06,91.561 C77.703,91.964 75.712,92.35 73.707,92.636 C70.494,93.095 67.263,93.435 64.056,93.934 C62.735,94.14 62.213,93.699 61.954,92.436 C61.219,88.843 60.372,85.274 59.591,81.691 C59.122,79.539 59.454,79.12 61.594,78.907 C63.567,78.711 65.542,78.515 67.505,78.236 C68.816,78.049 69.799,78.351 70.658,79.437 C73.456,82.975 76.334,86.45 79.164,89.963 C79.448,90.316 79.618,90.762 80.06,91.561 L80.06,91.561 Z" id="Shape" fill="#000000" sketch:type="MSShapeGroup"></path>
            <path d="M169.059,67.295 C169.537,67.234 170.018,67.191 170.493,67.11 C171.534,66.934 172.04,67.293 172.151,68.412 C172.419,71.105 172.769,73.791 173.129,76.474 C173.301,77.752 173.052,78.495 171.541,78.67 C168.013,79.08 164.496,79.613 160.99,80.193 C159.779,80.393 159.044,80.15 158.592,78.952 C157.55,76.191 156.474,73.44 155.338,70.717 C154.737,69.277 155.231,68.766 156.666,68.614 C160.797,68.178 164.921,67.673 169.049,67.195 C169.051,67.229 169.055,67.262 169.059,67.295 L169.059,67.295 Z" id="Shape" fill="#000000" sketch:type="MSShapeGroup"></path>
            <path d="M207.947,184.548 C210.49,176.61 212.898,169.091 215.442,161.151 C216.053,161.915 216.397,162.23 216.604,162.618 C218.984,167.089 221.313,171.588 223.728,176.04 C224.482,177.431 224.27,178.171 222.751,178.771 C218.322,180.521 213.938,182.386 209.53,184.193 C209.21,184.325 208.846,184.351 207.947,184.548 L207.947,184.548 Z" id="Shape" fill="#000000" sketch:type="MSShapeGroup"></path>
            <path d="M169.218,103.713 C168.86,103.358 168.098,102.923 167.828,102.281 C166.242,98.502 164.775,94.674 163.258,90.865 C162.825,89.777 163.069,89.148 164.325,88.986 C167.194,88.615 170.058,88.206 172.919,87.784 C174.025,87.621 174.478,88.17 174.596,89.163 C175.073,93.17 175.549,97.179 176.024,101.186 C176.145,102.2 175.747,102.791 174.687,102.928 C173.014,103.145 171.348,103.405 169.218,103.713 L169.218,103.713 Z" id="Shape" fill="#000000" sketch:type="MSShapeGroup"></path>
            <path d="M200.453,210.381 C203.987,219.352 207.522,228.322 211.057,237.294 C210.804,237.464 210.551,237.635 210.298,237.805 C209.751,237.101 209.214,236.39 208.654,235.696 C205.028,231.196 201.419,226.683 197.754,222.215 C196.774,221.02 196.543,219.86 197.078,218.389 C198.034,215.764 198.848,213.088 199.721,210.433 C199.965,210.415 200.209,210.398 200.453,210.381 L200.453,210.381 Z" id="Shape" fill="#000000" sketch:type="MSShapeGroup"></path>
            <path d="M178.51,128.666 C178.286,128.344 177.99,128.051 177.85,127.696 C176.109,123.336 174.416,118.956 172.652,114.606 C172.037,113.09 172.623,112.543 174.064,112.301 C177.065,111.8 177.311,112.05 177.574,115.095 C177.885,118.689 178.388,122.266 178.787,125.853 C178.885,126.737 178.899,127.629 178.953,128.518 C178.805,128.568 178.657,128.617 178.51,128.666 L178.51,128.666 Z" id="Shape" fill="#000000" sketch:type="MSShapeGroup"></path>
            <path d="M192.657,202.006 C191.686,205.054 190.716,208.102 189.746,211.15 C189.517,211.211 189.289,211.271 189.06,211.331 C187.512,209.395 185.95,207.469 184.444,205.501 C184.319,205.337 184.481,204.679 184.667,204.595 C187.141,203.478 189.642,202.422 192.136,201.351 C192.31,201.57 192.483,201.788 192.657,202.006 L192.657,202.006 Z" id="Shape" fill="#000000" sketch:type="MSShapeGroup"></path>
            <path d="M81.41,76.846 C82.775,76.691 84.142,76.409 85.503,76.439 C86.118,76.452 87.17,77 87.254,77.449 C87.76,80.132 88.042,82.857 88.103,85.719 C85.303,83.179 83.091,80.252 80.874,77.33 C81.052,77.168 81.231,77.007 81.41,76.846 L81.41,76.846 Z" id="Shape" fill="#000000" sketch:type="MSShapeGroup"></path>
            <path d="M248.554,60.072 C249.945,61.99 251.367,63.887 252.679,65.859 C252.818,66.068 252.367,67.045 252.074,67.106 C250.204,67.498 248.304,67.767 246.403,67.973 C246.169,67.998 245.581,67.332 245.64,67.123 C246.3,64.794 247.056,62.493 247.786,60.184 C248.041,60.147 248.297,60.11 248.554,60.072 L248.554,60.072 Z" id="Shape" fill="#000000" sketch:type="MSShapeGroup"></path>
            <path d="M56.047,61.405 C58.084,63.916 60.121,66.427 62.157,68.939 C62.075,69.14 61.994,69.342 61.912,69.543 C60.585,69.681 59.261,69.869 57.931,69.92 C57.63,69.932 57.107,69.519 57.032,69.216 C56.421,66.733 55.892,64.23 55.338,61.733 C55.575,61.624 55.811,61.514 56.047,61.405 L56.047,61.405 Z" id="Shape" fill="#000000" sketch:type="MSShapeGroup"></path>
        </g>
    </g>
</svg>