<?xml version="1.0" encoding="UTF-8" standalone="no"?>
<svg width="180px" height="159px" viewBox="0 0 180 159" version="1.1" xmlns="http://www.w3.org/2000/svg" xmlns:xlink="http://www.w3.org/1999/xlink" xmlns:sketch="http://www.bohemiancoding.com/sketch/ns">
    <!-- Generator: Sketch 3.4.3 (16044) - http://www.bohemiancoding.com/sketch -->
    <title>logo_text</title>
    <desc>Created with Sketch.</desc>
    <defs></defs>
    <g id="Page-1" stroke="none" stroke-width="1" fill="none" fill-rule="evenodd" sketch:type="MSPage">
        <g id="logo_text" sketch:type="MSLayerGroup" transform="translate(-2.000000, 0.000000)" fill="#545454">
            <path d="M156.182692,138 L182,138 L182,0 L3,0 L3,138 L28.8173077,138 L28.8173077,27.6 L156.182692,27.6 L156.182692,138 Z" id="c" sketch:type="MSShapeGroup"></path>
            <path d="M92.4232462,70.5295324 L121.846492,36 L134.376898,36 L146.907304,36 L147,137.136773 L122.092696,137.136773 L122.026597,65.0185059 L105,85 L92.4232462,85 L79.8464924,85 L61.9881805,64.0424498 L62.0552186,137.184908 L37.1479146,137.184908 L37.0552186,36.0481348 L38.1337125,36.0481348 L38.092696,36 L63,36 L92.4232462,70.5295324 Z M80,85 L105,85 L92.5,99.1044655 L80,85 Z" id="m" sketch:type="MSShapeGroup"></path>
            <text id="MIKKELSEN-CONSULT" sketch:type="MSTextLayer" font-family="Open Sans" font-size="17" font-weight="bold" sketch:alignment="middle">
                <tspan x="1.33691406" y="158">MIKKELSEN CONSULT</tspan>
            </text>
        </g>
    </g>
</svg>